<mxfile host="app.diagrams.net" modified="2023-09-11T06:35:04.701Z" agent="Mozilla/5.0 (Windows NT 10.0; Win64; x64) AppleWebKit/537.36 (KHTML, like Gecko) Chrome/116.0.0.0 Safari/537.36" version="21.6.9" etag="UL-_VUYKdKVYLpQIwos2" type="github">
  <diagram name="第 1 页" id="iGBICMG1UYyqzaV0Cjfz">
    <mxGraphModel>
      <root>
        <mxCell id="0" />
        <mxCell id="1" parent="0" />
      </root>
    </mxGraphModel>
  </diagram>
</mxfile>
